HIERARCHY
ROOT Hips
{
	OFFSET -0.001795 -0.223333 0.028219
	CHANNELS 6 Xposition Yposition Zposition Zrotation Yrotation Xrotation 
	JOINT LeftUpLeg
	{
		OFFSET 0.069520 -0.091406 -0.006815
		CHANNELS 3 Zrotation Yrotation Xrotation
		JOINT LeftLeg
		{
			OFFSET 0.034277 -0.375199 -0.004496
			CHANNELS 3 Zrotation Yrotation Xrotation
			JOINT LeftFoot
			{
				OFFSET -0.013596 -0.397961 -0.043693
				CHANNELS 3 Zrotation Yrotation Xrotation
				JOINT LeftToe
				{
					OFFSET 0.026358 -0.055791 0.119288
					CHANNELS 3 Zrotation Yrotation Xrotation
					End Site
					{
						OFFSET 0.000000 0.000000 0.000000
					}
				}
			}
		}
	}
	JOINT RightUpLeg
	{
		OFFSET -0.067670 -0.090522 -0.004320
		CHANNELS 3 Zrotation Yrotation Xrotation
		JOINT RightLeg
		{
			OFFSET -0.038290 -0.382569 -0.008850
			CHANNELS 3 Zrotation Yrotation Xrotation
			JOINT RightFoot
			{
				OFFSET 0.015774 -0.398415 -0.042312
				CHANNELS 3 Zrotation Yrotation Xrotation
				JOINT RightToe
				{
					OFFSET -0.025372 -0.048144 0.123348
					CHANNELS 3 Zrotation Yrotation Xrotation
					End Site
					{
						OFFSET 0.000000 0.000000 0.000000
					}
				}
			}
		}
	}
	JOINT Spine
	{
		OFFSET -0.002533 0.108963 -0.026696
		CHANNELS 3 Zrotation Yrotation Xrotation
		JOINT Spine1
		{
			OFFSET 0.005487 0.135180 0.001092
			CHANNELS 3 Zrotation Yrotation Xrotation
			JOINT Spine2
			{
				OFFSET 0.001457 0.052922 0.025425
				CHANNELS 3 Zrotation Yrotation Xrotation
				JOINT Neck
				{
					OFFSET -0.002778 0.213870 -0.042857
					CHANNELS 3 Zrotation Yrotation Xrotation
					JOINT Head
					{
						OFFSET 0.005152 0.064970 0.051349
						CHANNELS 3 Zrotation Yrotation Xrotation
						End Site
						{
							OFFSET 0.000000 0.000000 0.000000
						}
					}
				}
				JOINT LeftShoulder
				{
					OFFSET 0.078845 0.121749 -0.034090
					CHANNELS 3 Zrotation Yrotation Xrotation
					JOINT LeftArm
					{
						OFFSET 0.090977 0.030469 -0.008868
						CHANNELS 3 Zrotation Yrotation Xrotation
						JOINT LeftForeArm
						{
							OFFSET 0.259612 -0.012772 -0.027456
							CHANNELS 3 Zrotation Yrotation Xrotation
							JOINT LeftHand
							{
								OFFSET 0.249234 0.008986 -0.001171
								CHANNELS 3 Zrotation Yrotation Xrotation
								End Site
								{
									OFFSET 0.000000 0.000000 0.000000
								}
							}
						}
					}
				}
				JOINT RightShoulder
				{
					OFFSET -0.081759 0.118833 -0.038615
					CHANNELS 3 Zrotation Yrotation Xrotation
					JOINT RightArm
					{
						OFFSET -0.096012 0.032551 -0.009143
						CHANNELS 3 Zrotation Yrotation Xrotation
						JOINT RightForeArm
						{
							OFFSET -0.253742 -0.013329 -0.021401
							CHANNELS 3 Zrotation Yrotation Xrotation
							JOINT RightHand
							{
								OFFSET -0.255298 0.007772 -0.005559
								CHANNELS 3 Zrotation Yrotation Xrotation
								End Site
								{
									OFFSET 0.000000 0.000000 0.000000
								}
							}
						}
					}
				}
			}
		}
	}
}
MOTION
Frames: 13
Frame Time: 0.050000
-0.099861 0.937380 0.058311 -1.010680 -12.372309 3.262834 10.556710 0.581582 -18.225851 -6.790951 3.680887 33.603633 8.651834 17.902180 0.389608 0.000000 0.000000 0.000000 1.284737 1.217299 -11.006267 2.042039 1.339475 25.039980 -8.571266 -19.358917 -4.252046 0.000000 0.000000 0.000000 1.130230 -0.492123 11.508462 -1.114587 1.978463 -46.312471 -4.106495 15.556870 30.206097 10.261299 -4.841918 -18.035672 0.000000 0.000000 0.000000 31.642449 14.529130 0.548763 24.211870 -30.992864 -7.050875 30.346121 13.140396 2.244109 0.000000 0.000000 0.000000 -16.941162 -23.530606 -6.367990 -15.961407 26.047667 -2.910061 -24.463851 -7.479728 2.150837 0.000000 0.000000 0.000000 
-0.101058 0.945796 0.055011 -1.133187 -11.839640 4.626245 12.198612 1.079761 -21.931339 -8.871237 4.918931 36.154627 8.356668 17.142701 2.774801 0.000000 0.000000 0.000000 1.482187 1.444660 -12.642964 1.818465 1.348013 24.811411 -7.944955 -18.464434 -2.014834 0.000000 0.000000 0.000000 -0.420739 -0.322016 13.157643 -2.634348 2.035124 -46.752796 -3.690964 14.461346 29.804808 8.777557 -4.426179 -14.939442 0.000000 0.000000 0.000000 32.499161 14.988726 0.551301 24.706167 -29.729588 -6.563517 27.940671 12.975794 2.089912 0.000000 0.000000 0.000000 -19.505921 -24.180049 -5.883816 -14.562915 24.176599 -2.508528 -23.355423 -7.799726 2.121780 0.000000 0.000000 0.000000 
-0.100215 0.951020 0.049120 -1.513077 -10.800939 5.793103 12.913061 1.532670 -26.996957 -9.082637 5.584723 41.623372 7.292308 15.151853 4.270518 0.000000 0.000000 0.000000 1.701376 1.735235 -14.643005 1.769010 1.334809 25.353197 -7.425694 -17.564575 -1.423585 0.000000 0.000000 0.000000 -1.421387 -0.186551 15.751096 -4.172507 2.001746 -46.590355 -3.042517 12.664067 29.874937 8.586173 -4.257281 -15.918967 0.000000 0.000000 0.000000 32.619582 15.968076 0.258746 24.000368 -27.800968 -5.564973 26.587490 13.125666 2.096920 0.000000 0.000000 0.000000 -22.718761 -25.454456 -5.267391 -14.855455 21.359032 -2.055528 -20.144849 -7.887048 1.776805 0.000000 0.000000 0.000000 
-0.097902 0.944959 0.040653 -1.500258 -9.312562 6.452452 14.734478 2.421972 -32.805210 -10.153874 6.481671 46.473533 6.184775 13.144650 4.028599 0.000000 0.000000 0.000000 0.375870 2.143983 -18.592323 3.970792 0.813512 30.076663 -8.457188 -20.268232 -1.749139 0.000000 0.000000 0.000000 -2.581001 0.027330 19.003453 -7.441966 1.992405 -44.254860 -2.713264 10.135076 28.390852 7.077533 -3.459817 -15.072790 0.000000 0.000000 0.000000 32.953970 17.597162 0.028962 23.577633 -26.831986 -4.961372 26.490006 13.524392 2.301332 0.000000 0.000000 0.000000 -24.468219 -25.589413 -4.378388 -13.289145 16.824154 -1.280973 -16.426809 -6.402498 1.195467 0.000000 0.000000 0.000000 
-0.096011 0.931458 0.030134 -2.046876 -9.266368 7.202843 16.774291 3.948979 -39.325294 -10.751664 7.718072 52.928303 6.184897 13.281825 5.319847 0.000000 0.000000 0.000000 -0.684099 2.822844 -24.478085 6.146647 0.368893 37.569101 -9.721803 -23.631645 1.589156 0.000000 0.000000 0.000000 -3.891617 0.443742 23.574417 -8.404679 1.997942 -43.669712 -2.791687 8.866330 28.488045 6.223488 -2.581224 -17.776458 0.000000 0.000000 0.000000 30.331358 18.812569 -0.948184 22.122961 -24.807601 -3.962371 27.997594 13.285828 2.476994 0.000000 0.000000 0.000000 -23.460509 -27.620460 -4.758568 -12.904240 15.933072 -1.200248 -13.570534 -5.074778 0.808271 0.000000 0.000000 0.000000 
-0.095307 0.907396 0.018433 -2.184175 -7.568132 6.648743 18.726373 5.055296 -44.154537 -11.203031 7.659006 55.084460 5.500685 11.995156 4.374584 0.000000 0.000000 0.000000 -2.653434 2.792868 -27.674879 10.477448 -1.881424 43.754906 -11.567307 -27.909544 -0.044411 0.000000 0.000000 0.000000 -6.025265 1.195476 29.794848 -11.263053 2.177517 -41.190912 -3.176695 4.017335 27.733128 7.519748 -3.937656 -18.517861 0.000000 0.000000 0.000000 28.056000 18.851756 -2.099988 20.005593 -19.462772 -1.832907 30.768911 10.343264 2.383568 0.000000 0.000000 0.000000 -19.099814 -25.611938 -4.662046 -12.690612 14.621383 -1.145135 -12.591251 -5.959429 0.715432 0.000000 0.000000 0.000000 
-0.095538 0.873956 0.007790 -2.756894 -7.585774 6.917826 21.780243 7.476242 -49.754618 -12.043184 8.175303 56.285106 3.915424 9.327568 5.482208 0.000000 0.000000 0.000000 -3.554267 3.526219 -35.227246 14.865022 -4.692982 52.551515 -12.727058 -30.757666 -0.081537 0.000000 0.000000 0.000000 -9.270610 2.915169 37.342110 -13.096010 2.306056 -40.457724 -1.963007 3.119138 25.486881 7.353912 -3.372604 -21.219166 0.000000 0.000000 0.000000 24.170711 15.582307 -2.091570 21.536384 -15.031587 -0.640043 30.057874 11.147734 2.440152 0.000000 0.000000 0.000000 -15.385920 -24.133052 -5.075085 -10.263021 14.800550 -1.197315 -13.949305 -4.335050 0.661866 0.000000 0.000000 0.000000 
-0.095214 0.827192 0.000921 -4.244149 -4.853429 4.934051 24.231629 8.440614 -53.299070 -11.485494 7.282183 59.336335 0.951780 3.750978 4.683800 0.000000 0.000000 0.000000 -4.708338 3.382307 -40.232330 20.476020 -10.431890 60.665782 -13.983847 -34.364924 -3.168599 0.000000 0.000000 0.000000 -10.713451 3.830558 46.075713 -13.207742 2.372550 -38.793297 -2.887712 4.180779 24.365456 12.182022 -6.102960 -20.845105 0.000000 0.000000 0.000000 23.448359 10.347923 -0.556885 19.470235 -10.021561 0.334650 27.329453 10.976516 1.894018 0.000000 0.000000 0.000000 -11.733450 -18.440189 -4.755815 -5.810660 13.771644 -0.927816 -17.726645 -3.445321 0.857803 0.000000 0.000000 0.000000 
-0.092184 0.771239 -0.000810 -6.252896 -4.632097 4.597049 28.122407 11.678407 -58.384151 -13.800341 9.858367 66.541847 1.436671 3.352468 0.855845 0.000000 0.000000 0.000000 -5.161197 3.993082 -47.991422 25.933800 -16.934768 69.008901 -15.719654 -38.412287 -3.375761 0.000000 0.000000 0.000000 -13.983678 6.218125 53.040660 -10.910265 2.076775 -39.124253 -3.243832 7.429513 24.131307 14.414358 -5.262039 -27.921982 0.000000 0.000000 0.000000 22.857355 5.737387 1.098297 15.326058 -6.431998 0.610822 23.820709 9.255304 1.123692 0.000000 0.000000 0.000000 -10.641842 -13.130311 -3.883651 0.256678 16.821150 -1.145255 -21.786125 -1.807277 1.078934 0.000000 0.000000 0.000000 
-0.084431 0.720248 0.004283 -7.224782 -4.707143 4.472427 29.619736 13.852151 -62.828489 -14.656361 11.508563 72.774811 2.245891 3.040592 -4.314495 0.000000 0.000000 0.000000 -6.987543 3.972918 -55.463404 29.325577 -22.481380 75.704037 -18.475426 -41.660065 1.532374 0.000000 0.000000 0.000000 -16.607360 8.835398 59.610441 -9.371341 1.921762 -38.781746 -3.877734 10.233712 23.026088 17.234886 -5.690540 -30.460291 0.000000 0.000000 0.000000 19.715579 0.075958 2.438767 10.796261 -6.236429 0.210358 24.004486 8.054764 0.747294 0.000000 0.000000 0.000000 -9.171720 -7.134204 -2.627612 3.165928 23.706633 -1.215476 -28.486372 -1.123296 1.641140 0.000000 0.000000 0.000000 
-0.071656 0.680925 0.015203 -8.407550 -5.255958 5.793896 29.107593 15.189450 -67.380225 -13.447813 11.313146 78.135191 3.484337 3.188673 -10.881654 0.000000 0.000000 0.000000 -8.047068 4.089333 -59.994488 30.492041 -25.272059 79.738897 -18.637082 -42.957603 -0.488075 0.000000 0.000000 0.000000 -17.619742 10.467802 63.090502 -9.301517 1.914622 -38.344282 -4.333819 10.985122 23.109196 16.961827 -4.472478 -34.213093 0.000000 0.000000 0.000000 16.080345 -5.336110 3.238154 4.581483 -7.812111 -0.331382 23.853048 4.729964 0.170178 0.000000 0.000000 0.000000 -9.385311 0.430763 -0.519566 0.595966 32.572543 -1.639195 -34.847636 -0.575822 1.947397 0.000000 0.000000 0.000000 
-0.053607 0.652698 0.030735 -8.546378 -4.758384 6.100892 27.566219 14.890581 -71.221819 -12.748626 11.498157 84.369903 4.446546 3.787409 -15.290929 0.000000 0.000000 0.000000 -10.546243 2.814365 -63.305754 32.282582 -28.666736 82.006463 -25.469455 -48.786899 9.730432 0.000000 0.000000 0.000000 -17.456572 11.098797 67.590071 -10.129307 1.979355 -38.630025 -4.034535 10.948946 23.512282 16.572573 -3.870800 -35.908511 0.000000 0.000000 0.000000 11.844237 -10.544917 4.065443 -1.312310 -11.414483 -0.862632 26.572879 -2.734647 -1.327730 0.000000 0.000000 0.000000 -13.692545 5.089998 0.310242 -1.257975 38.349401 -1.930242 -40.380161 4.785020 0.543500 0.000000 0.000000 0.000000 
-0.031783 0.633429 0.048985 -8.275616 -3.569536 6.655480 25.657569 13.405833 -73.813139 -13.471236 12.762100 87.586990 6.100766 7.261222 -19.302034 0.000000 0.000000 0.000000 -13.012839 1.000023 -64.806822 32.807074 -30.975094 84.163711 -30.970391 -52.183799 16.802446 0.000000 0.000000 0.000000 -16.799404 10.560688 69.912261 -10.372919 2.020393 -38.435627 -4.445853 11.344019 23.118146 18.041473 -4.128638 -37.244398 0.000000 0.000000 0.000000 9.670081 -12.403954 4.472587 -9.662140 -16.320327 -1.100882 28.873914 -13.915687 -4.168531 0.000000 0.000000 0.000000 -19.031756 7.774154 0.236122 -3.577804 43.530093 -2.284525 -42.485829 6.287450 0.067167 0.000000 0.000000 0.000000 
